# Ballista Tower Footprint Template
# Larger octagonal tower - ALREADY SCALED x5 for game use
# Height reference: 5 units (adjust in Blender as needed)

# Bottom vertices (Y=0) - coordinates * 5
v -5 0 -6
v 5 0 -6
v 6 0 -5
v 6 0 5
v 5 0 6
v -5 0 6
v -6 0 5
v -6 0 -5

# Top vertices (Y=5)
v -5 5 -6
v 5 5 -6
v 6 5 -5
v 6 5 5
v 5 5 6
v -5 5 6
v -6 5 5
v -6 5 -5

# Bottom face
f 8 7 6 5 4 3 2 1

# Top face
f 9 10 11 12 13 14 15 16

# Side faces
f 1 2 10 9
f 2 3 11 10
f 3 4 12 11
f 4 5 13 12
f 5 6 14 13
f 6 7 15 14
f 7 8 16 15
f 8 1 9 16
