# Blender 5.0.0
# www.blender.org
mtllib level2.mtl
o Plane
v -32.000000 0.000000 32.000000
v -32.000000 0.000000 -32.000000
v -32.000000 0.000000 -17.295429
v -32.000000 0.000000 -23.683060
v -32.000000 -3.194478 -17.295429
v -32.000000 -3.194478 -23.683060
v 32.000000 0.000000 32.000000
v 32.000000 0.000000 -32.000000
v 32.000000 0.000000 -17.295429
v 32.000000 0.000000 -23.683060
v 32.000000 -3.194478 -17.295429
v 32.000000 -3.194478 -23.683060
v -8.939789 0.000000 -3.698099
v -13.583168 0.000000 9.678266
v 3.066635 0.000000 11.793381
v -0.629433 0.000000 0.234840
v -0.288456 -3.194478 -13.809788
v 0.326042 0.000000 -13.809788
v -8.444462 -3.194478 -20.197418
v -7.908901 0.000000 -20.197418
v -6.232075 10.016632 1.968517
v -7.666721 10.016632 6.101356
v -2.522499 10.016632 6.754854
v -3.664459 10.016632 3.183661
vn 0.1091 -0.0013 -0.9940
vn 0.1073 -0.0194 -0.9940
vn 0.1093 -0.0000 -0.9940
vn -0.0000 1.0000 -0.0000
vn -0.1461 0.0020 0.9893
vn -0.1434 0.0222 0.9894
vn -0.1432 0.0240 0.9894
vn 0.8909 0.3538 -0.2849
vn -0.1074 0.0195 -0.9940
vn -0.1093 0.0013 -0.9940
vn -0.1073 0.0206 -0.9940
vn 0.0859 -0.0137 0.9962
vn 0.0870 -0.0007 0.9962
vn 0.0870 -0.0000 0.9962
vn -0.8644 0.4034 -0.3001
vn 0.3978 0.3680 -0.8405
vn -0.1158 0.3940 0.9118
vn 0.1072 -0.0206 -0.9940
vn -0.1464 -0.0000 0.9892
vn -0.1094 -0.0000 -0.9940
vn 0.0859 -0.0144 0.9962
vt 0.004074 0.768039
vt 0.495530 0.714020
vt 0.995926 0.867033
vt 0.369130 0.813013
vt 0.377430 0.813013
vt 0.995926 0.995926
vt 0.004074 0.995926
vt 0.004074 0.867033
vt 0.004074 0.004074
vt 0.547526 0.317230
vt 0.289492 0.350009
vt 0.381184 0.405443
vt 0.443209 0.450661
vt 0.403417 0.469493
vt 0.505053 0.714020
vt 0.361454 0.557312
vt 0.490245 0.496361
vt 0.460907 0.395315
vt 0.995926 0.768039
vt 0.995926 0.004074
s 1
usemtl heightmap
f 3/1/1 17/2/2 5/1/3
f 17/2/4 12/3/4 19/4/4
f 20/5/4 8/6/4 2/7/4
f 4/8/5 19/4/6 20/5/7
f 1/9/4 15/10/4 14/11/4
f 22/12/4 24/13/4 21/14/4
f 18/15/4 3/1/4 13/16/4
f 16/17/8 23/18/8 15/10/8
f 18/15/9 11/19/10 17/2/11
f 20/5/12 12/3/13 10/3/14
f 22/12/15 13/16/15 14/11/15
f 21/14/16 16/17/16 13/16/16
f 23/18/17 14/11/17 15/10/17
f 3/1/1 18/15/18 17/2/2
f 6/8/4 5/1/4 17/2/4
f 17/2/4 11/19/4 12/3/4
f 19/4/4 6/8/4 17/2/4
f 2/7/4 4/8/4 20/5/4
f 20/5/4 10/3/4 8/6/4
f 4/8/5 6/8/19 19/4/6
f 1/9/4 7/20/4 15/10/4
f 22/12/4 23/18/4 24/13/4
f 15/10/4 7/20/4 9/19/4
f 15/10/4 9/19/4 18/15/4
f 16/17/4 15/10/4 18/15/4
f 3/1/4 1/9/4 14/11/4
f 13/16/4 16/17/4 18/15/4
f 3/1/4 14/11/4 13/16/4
f 16/17/8 24/13/8 23/18/8
f 18/15/9 9/19/20 11/19/10
f 20/5/12 19/4/21 12/3/13
f 22/12/15 21/14/15 13/16/15
f 21/14/16 24/13/16 16/17/16
f 23/18/17 22/12/17 14/11/17
