# Blender 5.0.0
# www.blender.org
o Plane
v 50.000000 0.000000 -50.000000
v -50.000000 0.000000 -50.000000
v 50.000000 0.000000 50.000000
v -50.000000 0.000000 50.000000
v 50.000000 0.000000 0.000000
v 0.000000 0.000000 -50.000000
v -50.000000 0.000000 0.000000
v 0.000000 0.000000 50.000000
v 0.000000 0.000000 0.000000
v 50.000000 0.000000 -25.000000
v -25.000000 0.000000 -50.000000
v -50.000000 0.000000 25.000000
v 25.000000 0.000000 50.000000
v 50.000000 0.000000 25.000000
v 25.000000 0.000000 -50.000000
v -50.000000 0.000000 -25.000000
v -25.000000 0.000000 50.000000
v -0.191279 2.295343 25.000000
v -25.000000 0.000000 0.000000
v 25.000000 0.000000 -25.000000
v 24.808722 2.295343 25.000000
v 50.000000 0.000000 -37.500000
v -37.500000 0.000000 -50.000000
v -50.000000 0.000000 37.500000
v 37.500000 0.000000 50.000000
v 50.000000 0.000000 12.500000
v -50.000000 0.000000 -12.500000
v -12.500000 0.000000 50.000000
v -0.062163 0.745956 37.500000
v 0.000000 0.000000 -12.500000
v 37.500000 0.000000 0.000000
v -12.500000 0.000000 0.000000
v 50.000000 0.000000 -12.500000
v -12.500000 0.000000 -50.000000
v -50.000000 0.000000 12.500000
v 12.500000 0.000000 50.000000
v 50.000000 0.000000 37.500000
v 37.500000 0.000000 -50.000000
v -50.000000 0.000000 -37.500000
v -37.500000 0.000000 50.000000
v -0.062163 0.745956 12.500000
v 0.000000 0.000000 -37.500000
v 12.500000 0.000000 0.000000
v -37.500000 0.000000 0.000000
v -25.000000 0.000000 -12.500000
v -25.000000 0.000000 -37.500000
v -12.500000 0.000000 -25.000000
v -37.500000 0.000000 -25.000000
v 25.000000 0.000000 -12.500000
v 25.000000 0.000000 -37.500000
v 37.500000 0.000000 -25.000000
v 12.500000 0.000000 -25.000000
v 24.937838 0.745956 37.500000
v 24.937838 0.745956 12.500000
v 37.500000 0.000000 25.000000
v 12.068023 5.183729 25.000000
v -25.000000 0.000000 37.500000
v -25.000000 0.000000 12.500000
v -12.500000 0.000000 25.000000
v -37.500000 0.000000 25.000000
v -37.500000 0.000000 12.500000
v -12.500000 0.000000 37.500000
v 12.308722 2.295343 12.500000
v 37.500000 0.000000 12.500000
v 37.500000 0.000000 37.500000
v 12.500000 0.000000 -37.500000
v 37.500000 0.000000 -37.500000
v 37.500000 0.000000 -12.500000
v -37.500000 0.000000 -37.500000
v -12.500000 0.000000 -37.500000
v -12.500000 0.000000 -12.500000
v -37.500000 0.000000 -12.500000
v 12.500000 0.000000 -12.500000
v 12.308722 2.295343 37.500000
v -37.500000 0.000000 37.500000
v -5.183733 0.000000 -33.288078
v -1.719623 0.000000 -31.288080
v -1.183729 0.000000 -29.288073
v -1.719623 0.000000 -27.288074
v -5.183733 0.000000 -25.288067
v -7.183722 0.000000 -25.823963
v -8.647830 0.000000 -27.288074
v -9.183737 0.000000 -29.288071
v -8.647830 0.000000 -31.288080
v -7.183722 0.000000 -32.752167
v 24.949850 0.601811 10.084558
v 24.164629 0.685717 9.874160
v 22.700516 0.778861 8.410059
v 22.164616 0.726474 6.410058
v 22.700516 0.542596 4.410062
v 24.164629 0.276493 2.945957
v 28.164629 0.175804 2.945957
v 29.628727 0.263177 4.410061
v 30.164612 0.382530 6.410058
v 29.628727 0.467405 8.410060
v 28.164627 0.554345 9.874161
v 26.164629 0.621235 10.410055
v 12.500000 0.000000 -15.398880
v 12.500000 0.000000 -12.825775
v 26.287439 0.000000 0.000000
v 0.000000 0.000000 -25.520756
v 12.902316 0.000000 -12.500000
v 16.079971 0.000000 -12.500000
v -2.534550 0.000000 -25.000000
v 0.643104 0.000000 -25.000000
v -1.926755 0.000000 -27.080942
v 26.651745 0.151613 2.540582
v -3.460515 0.000000 -25.749800
v 25.000000 0.000000 -2.607266
v 24.354305 0.000000 0.000000
v -0.185140 0.000000 -25.670671
v 24.685003 0.204416 2.806523
v 0.000000 0.000000 -22.947647
v 26.128046 0.000000 -1.111573
v 18.543028 0.000000 -7.932434
v 24.325405 0.000000 -0.245287
v 19.827736 0.000000 -9.465246
v -3.777903 0.000000 -32.911377
v 12.780848 0.000000 -50.000000
v -2.161118 0.000000 -31.729568
v 12.500000 0.000000 -49.656593
v 2.558067 0.000000 -37.500000
v 0.000000 0.000000 -34.372097
v 10.197546 0.000000 -50.000000
v -12.500000 0.000000 12.665218
v -24.480242 0.000000 25.000000
v -27.261795 0.000000 25.000000
v -12.500000 0.000000 9.801345
v -12.339531 0.009624 12.500000
v -5.995785 0.000000 0.000000
v -3.853844 0.000000 0.000000
v -15.121089 0.000000 12.500000
v -25.000000 0.000000 25.535139
v -25.000000 0.000000 22.671265
v -8.634952 0.003049 8.685789
v -4.632834 0.000000 1.989668
v -6.463886 0.000000 1.185160
v -10.161515 0.000000 7.393660
v -1.776910 0.000000 -5.304825
v -3.498476 0.000000 -6.322781
v -29.231646 0.000000 27.028139
v -27.705082 0.000000 28.320276
v -25.000000 0.000000 -25.846619
v 14.520468 2.023998 37.500000
v 20.691698 1.266888 37.500000
v -23.490171 0.000000 -25.000000
v 24.930323 0.836139 36.772430
v -25.000000 0.000000 -20.316416
v -34.305614 0.000000 -25.000000
v -31.718412 0.000000 -29.613905
v 23.460924 2.084357 28.067551
v 13.203571 3.831702 29.828255
v -22.640799 0.000000 -24.523722
v -36.036140 0.000000 -21.913858
v -26.958517 0.000000 -16.823679
v 14.697099 1.815308 38.528996
vn -0.0000 1.0000 -0.0000
vn -0.0309 0.9954 0.0907
vn -0.0155 0.9989 -0.0454
vn 0.0447 0.9963 0.0739
vn -0.1653 0.9861 0.0152
vn 0.1661 0.9859 -0.0188
vn -0.0149 0.9998 0.0150
vn -0.0998 0.9926 0.0687
vn -0.0000 0.9836 0.1806
vn -0.0904 0.9919 -0.0889
vn -0.0000 0.9959 -0.0907
vn 0.0901 0.9918 0.0902
vn 0.0984 0.9928 -0.0677
vn 0.0744 0.9971 -0.0150
vn -0.0094 1.0000 -0.0022
vn -0.0763 0.9970 0.0152
vn -0.0299 0.9996 -0.0000
vn -0.0006 0.9890 -0.1478
vn 0.0267 0.9996 -0.0049
vn 0.0374 0.9990 0.0226
vn -0.0086 0.9866 0.1632
vn 0.0707 0.9957 -0.0591
vn 0.1216 0.9909 -0.0585
vn 0.1048 0.9908 -0.0855
vn -0.0000 0.9982 -0.0596
vn 0.3267 0.8988 -0.2922
vn 0.1112 0.9912 -0.0716
vn 0.0651 0.9978 -0.0113
vn 0.0549 0.9985 -0.0055
vn 0.0133 0.9986 -0.0518
vn 0.0113 0.9997 -0.0197
vn 0.0287 0.9971 -0.0711
vn 0.1142 0.9898 -0.0855
vn -0.0452 0.9990 -0.0000
vn -0.0910 0.9947 -0.0470
vn -0.0182 0.9993 -0.0314
vn -0.0633 0.9966 -0.0518
vn -0.0805 0.9961 -0.0357
vn 0.1235 0.9728 0.1960
vn 0.1107 0.9917 0.0657
vn 0.0796 0.9894 0.1218
vn 0.1637 0.9758 0.1452
vn 0.4487 0.8824 0.1416
vn 0.1699 0.9850 0.0306
vt 1.000000 0.875000
vt 0.875000 1.000000
vt 0.875000 0.875000
vt 0.375000 0.875000
vt 0.500000 1.000000
vt 0.375000 1.000000
vt 0.500000 0.375000
vt 0.375000 0.500000
vt 0.375000 0.375000
vt 1.000000 0.375000
vt 0.875000 0.500000
vt 0.875000 0.375000
vt 0.750000 0.375000
vt 0.625000 0.500000
vt 0.625000 0.375000
vt 0.750000 0.125000
vt 0.734902 0.250000
vt 0.625000 0.250000
vt 1.000000 0.125000
vt 0.875000 0.250000
vt 0.875000 0.125000
vt 0.250000 0.375000
vt 0.238720 0.488884
vt 0.125000 0.500000
vt 0.250000 0.125000
vt 0.125000 0.250000
vt 0.125000 0.125000
vt 0.474419 0.125000
vt 0.500000 0.244792
vt 0.375000 0.250000
vt 0.125000 0.875000
vt 0.250000 1.000000
vt 0.125000 1.000000
vt 0.250000 0.625000
vt 0.125000 0.750000
vt 0.125000 0.625000
vt 0.375000 0.625000
vt 0.500000 0.750000
vt 0.375000 0.750000
vt 0.750000 0.875000
vt 0.625000 1.000000
vt 0.625000 0.875000
vt 1.000000 0.625000
vt 0.875000 0.750000
vt 0.875000 0.625000
vt 0.772618 0.750000
vt 0.750000 0.726713
vt 0.750000 0.625000
vt 0.750000 0.500000
vt 1.000000 0.500000
vt 0.623387 0.625000
vt 0.625000 0.750000
vt 0.546291 0.519876
vt 0.586266 0.586812
vt 0.500000 0.625000
vt 0.651211 0.625000
vt 0.625000 0.598013
vt 0.500000 0.875000
vt 0.744802 0.750000
vt 0.250000 0.750000
vt 0.500000 0.500000
vt 0.000000 0.750000
vt 0.000000 0.625000
vt 0.000000 0.500000
vt 0.203492 0.584145
vt 0.218014 0.598774
vt 0.000000 1.000000
vt 0.000000 0.875000
vt 0.250000 0.867724
vt 0.375000 0.125000
vt 0.250000 0.250000
vt 0.372192 0.000000
vt 0.000000 0.250000
vt 0.000000 0.125000
vt 0.125000 0.000000
vt 0.000000 0.000000
vt 0.250000 0.000000
vt 0.125000 0.375000
vt 0.000000 0.375000
vt 0.843056 0.250000
vt 0.817184 0.203861
vt 0.875000 0.000000
vt 0.750000 0.000000
vt 1.000000 0.000000
vt 0.625000 0.000000
vt 0.500000 0.125000
vt 0.500000 0.000000
vt 0.625000 0.125000
vt 0.534985 0.436772
vt 0.517769 0.446952
vt 0.726408 0.254763
vt 1.000000 0.250000
vt 0.301723 0.405348
vt 0.250000 0.473927
vt 0.339200 0.375000
vt 0.493569 0.250000
vt 0.375000 0.346011
vt 0.351463 0.885335
vt 0.263426 0.780830
vt 0.750000 1.000000
vt 1.000000 0.750000
vt 0.272495 0.584225
vt 0.277991 0.564303
vt 0.571837 0.241760
vt 0.586478 0.227119
vt 0.501851 0.243293
vt 0.517196 0.227119
vt 0.519268 0.229191
vt 0.370977 0.375000
vt 0.375000 0.371742
vt 0.525346 0.250000
vt 0.256746 0.497547
vt 0.500000 0.156279
vt 0.517196 0.187119
vt 0.571837 0.172478
vt 0.551837 0.167119
vt 0.375000 0.003434
vt 0.398025 0.000000
vt 0.625000 0.626652
vt 0.601573 0.573913
vt 0.559958 0.500000
vt 0.792316 0.770281
vt 0.292027 0.875000
vt 0.250000 0.875000
vt 0.860361 0.280861
vt 1.000000 1.000000
vt 0.750000 0.241534
vt 0.237126 0.500000
vt 0.538538 0.500000
vt 0.750000 0.755351
vt 0.233389 0.525414
vt 0.218267 0.529475
vt 0.203608 0.544131
vt 0.237895 0.604116
vt 0.250000 0.600846
vt 0.198214 0.564148
vt 0.750000 0.296836
vt 0.353109 0.875000
vt 0.364664 0.798355
vt 0.258218 0.529538
vt 0.253014 0.528094
vt 0.256457 0.500000
vt 0.257829 0.598781
vt 0.272787 0.544304
vt 0.534605 0.242502
vt 0.551837 0.247119
vt 0.591837 0.207119
vt 0.511837 0.207119
vt 0.500000 0.270524
vt 0.314570 0.420676
vt 0.521611 0.182704
vt 0.537779 0.170886
vt 0.586478 0.187119
vt 0.564620 0.511841
vt 0.777051 0.783203
vt 0.769585 0.331763
s 1
f 24/1/1 40/2/1 75/3/1
f 74/4/21 8/5/2 36/6/9
f 30/7/1 43/8/11 73/9/1
f 27/10/1 44/11/1 72/12/1
f 45/13/1 32/14/1 71/15/1
f 46/16/1 146/17/1 47/18/1
f 39/19/1 48/20/1 69/21/1
f 49/22/1 114/23/1 31/24/1
f 50/25/1 51/26/1 67/27/1
f 122/28/1 101/29/1 52/30/1
f 65/31/20 13/32/4 25/33/1
f 54/34/13 55/35/14 64/36/19
f 63/37/18 18/38/5 56/39/15
f 57/40/1 28/41/7 62/42/17
f 35/43/1 60/44/1 61/45/1
f 61/45/1 127/46/1 134/47/1
f 44/11/1 58/48/1 19/49/1
f 7/50/1 61/45/1 44/11/1
f 129/51/35 59/52/16 18/38/5
f 136/53/38 135/54/37 41/55/10
f 19/49/1 132/56/1 128/57/1
f 29/58/8 28/41/7 8/5/2
f 59/52/16 29/58/8 18/38/5
f 126/59/1 57/40/1 62/42/17
f 63/37/18 21/60/6 54/34/13
f 9/61/3 63/37/18 43/8/11
f 64/36/19 14/62/1 26/63/1
f 31/24/1 26/63/1 5/64/1
f 95/65/28 96/66/29 64/36/19
f 65/31/20 3/67/1 37/68/1
f 55/35/14 37/68/1 14/62/1
f 21/60/6 147/69/41 65/31/20
f 66/70/1 20/71/1 50/25/1
f 119/72/1 66/70/1 50/25/1
f 67/27/1 10/73/1 22/74/1
f 38/75/1 22/74/1 1/76/1
f 15/77/1 67/27/1 38/75/1
f 68/78/1 5/64/1 33/79/1
f 51/26/1 33/79/1 10/73/1
f 20/71/1 68/78/1 51/26/1
f 69/21/1 149/80/1 150/81/1
f 23/82/1 46/16/1 11/83/1
f 2/84/1 69/21/1 23/82/1
f 34/85/1 42/86/1 6/87/1
f 11/83/1 70/88/1 34/85/1
f 30/7/1 140/89/1 139/90/1
f 47/18/1 153/91/1 45/13/1
f 72/12/1 19/49/1 45/13/1
f 16/92/1 72/12/1 48/20/1
f 49/22/1 117/93/1 109/94/1
f 52/30/1 103/95/1 49/22/1
f 52/30/1 105/96/1 98/97/1
f 156/98/44 74/4/21 13/32/4
f 21/60/6 56/39/15 151/99/42
f 18/38/5 74/4/21 56/39/15
f 75/3/1 17/100/1 57/40/1
f 12/101/1 75/3/1 60/44/1
f 63/37/18 88/102/23 89/103/23
f 81/104/1 82/105/1 47/18/1
f 111/106/1 79/107/1 106/108/1
f 102/109/1 99/110/1 73/9/1
f 99/110/1 30/7/1 73/9/1
f 104/111/1 71/15/1 30/7/1
f 116/112/1 102/109/1 43/8/11
f 123/113/1 77/114/1 111/106/1
f 70/88/1 85/115/1 76/116/1
f 121/117/1 122/28/1 66/70/1
f 42/86/1 124/118/1 6/87/1
f 125/119/34 126/59/1 59/52/16
f 134/47/1 132/56/1 58/48/1
f 138/120/1 130/121/1 32/14/1
f 141/122/1 60/44/1 57/40/1
f 147/69/41 145/123/40 53/124/12
f 154/125/1 72/12/1 45/13/1
f 24/1/1 4/126/1 40/2/1
f 74/4/21 29/58/8 8/5/2
f 30/7/1 9/61/3 43/8/11
f 27/10/1 7/50/1 44/11/1
f 45/13/1 19/49/1 32/14/1
f 47/18/1 70/88/1 46/16/1
f 46/16/1 143/127/1 146/17/1
f 39/19/1 16/92/1 48/20/1
f 31/24/1 68/78/1 49/22/1
f 49/22/1 109/94/1 114/23/1
f 114/23/1 100/128/31 31/24/1
f 50/25/1 20/71/1 51/26/1
f 52/30/1 66/70/1 122/28/1
f 122/28/1 123/113/1 101/29/1
f 101/29/1 105/96/1 52/30/1
f 65/31/20 53/124/12 13/32/4
f 54/34/13 21/60/6 55/35/14
f 63/37/18 41/55/10 18/38/5
f 57/40/1 17/100/1 28/41/7
f 35/43/1 12/101/1 60/44/1
f 134/47/1 58/48/1 61/45/1
f 61/45/1 60/44/1 127/46/1
f 44/11/1 61/45/1 58/48/1
f 7/50/1 35/43/1 61/45/1
f 18/38/5 41/55/10 129/51/35
f 129/51/35 125/119/34 59/52/16
f 41/55/10 9/61/3 131/129/36
f 41/55/10 131/129/36 136/53/38
f 135/54/37 129/51/35 41/55/10
f 128/57/1 32/14/1 19/49/1
f 19/49/1 58/48/1 132/56/1
f 29/58/8 62/42/17 28/41/7
f 59/52/16 62/42/17 29/58/8
f 62/42/17 59/52/16 126/59/1
f 126/59/1 133/130/1 57/40/1
f 63/37/18 56/39/15 21/60/6
f 9/61/3 41/55/10 63/37/18
f 64/36/19 55/35/14 14/62/1
f 31/24/1 64/36/19 26/63/1
f 64/36/19 31/24/1 100/128/31
f 100/128/31 107/131/25 92/132/25
f 100/128/31 92/132/25 93/133/26
f 97/134/30 86/135/22 54/34/13
f 96/66/29 97/134/30 54/34/13
f 64/36/19 100/128/31 93/133/26
f 64/36/19 93/133/26 94/136/27
f 96/66/29 54/34/13 64/36/19
f 64/36/19 94/136/27 95/65/28
f 65/31/20 25/33/1 3/67/1
f 55/35/14 65/31/20 37/68/1
f 65/31/20 55/35/14 21/60/6
f 147/69/41 53/124/12 65/31/20
f 66/70/1 52/30/1 20/71/1
f 50/25/1 15/77/1 119/72/1
f 119/72/1 121/117/1 66/70/1
f 67/27/1 51/26/1 10/73/1
f 38/75/1 67/27/1 22/74/1
f 15/77/1 50/25/1 67/27/1
f 68/78/1 31/24/1 5/64/1
f 51/26/1 68/78/1 33/79/1
f 20/71/1 49/22/1 68/78/1
f 143/127/1 46/16/1 69/21/1
f 69/21/1 48/20/1 149/80/1
f 150/81/1 143/127/1 69/21/1
f 23/82/1 69/21/1 46/16/1
f 2/84/1 39/19/1 69/21/1
f 34/85/1 70/88/1 42/86/1
f 11/83/1 46/16/1 70/88/1
f 30/7/1 71/15/1 32/14/1
f 32/14/1 130/121/1 140/89/1
f 139/90/1 131/129/36 9/61/3
f 30/7/1 32/14/1 140/89/1
f 139/90/1 9/61/3 30/7/1
f 47/18/1 146/17/1 153/91/1
f 153/91/1 148/137/1 45/13/1
f 45/13/1 71/15/1 47/18/1
f 72/12/1 44/11/1 19/49/1
f 16/92/1 27/10/1 72/12/1
f 49/22/1 103/95/1 117/93/1
f 49/22/1 20/71/1 52/30/1
f 52/30/1 98/97/1 103/95/1
f 13/32/4 53/124/12 145/123/40
f 156/98/44 144/138/39 74/4/21
f 13/32/4 145/123/40 156/98/44
f 74/4/21 36/6/9 13/32/4
f 56/39/15 74/4/21 144/138/39
f 56/39/15 144/138/39 152/139/43
f 151/99/42 147/69/41 21/60/6
f 56/39/15 152/139/43 151/99/42
f 18/38/5 29/58/8 74/4/21
f 75/3/1 40/2/1 17/100/1
f 12/101/1 24/1/1 75/3/1
f 91/140/24 112/141/33 110/142/32
f 110/142/32 43/8/11 63/37/18
f 63/37/18 54/34/13 86/135/22
f 63/37/18 86/135/22 87/143/23
f 91/140/24 110/142/32 63/37/18
f 90/144/23 91/140/24 63/37/18
f 63/37/18 87/143/23 88/102/23
f 89/103/23 90/144/23 63/37/18
f 104/111/1 108/145/1 80/146/1
f 47/18/1 104/111/1 80/146/1
f 82/105/1 83/147/1 47/18/1
f 47/18/1 80/146/1 81/104/1
f 111/106/1 78/148/1 79/107/1
f 99/110/1 113/149/1 30/7/1
f 30/7/1 113/149/1 104/111/1
f 104/111/1 47/18/1 71/15/1
f 43/8/11 110/142/32 116/112/1
f 116/112/1 115/150/1 102/109/1
f 102/109/1 73/9/1 43/8/11
f 123/113/1 120/151/1 77/114/1
f 77/114/1 78/148/1 111/106/1
f 111/106/1 101/29/1 123/113/1
f 76/116/1 118/152/1 42/86/1
f 70/88/1 47/18/1 83/147/1
f 70/88/1 83/147/1 84/153/1
f 76/116/1 42/86/1 70/88/1
f 70/88/1 84/153/1 85/115/1
f 32/14/1 128/57/1 138/120/1
f 138/120/1 137/154/1 130/121/1
f 57/40/1 133/130/1 142/155/1
f 141/122/1 127/46/1 60/44/1
f 57/40/1 142/155/1 141/122/1
f 60/44/1 75/3/1 57/40/1
f 45/13/1 148/137/1 155/156/1
f 154/125/1 149/80/1 48/20/1
f 45/13/1 155/156/1 154/125/1
f 154/125/1 48/20/1 72/12/1
